<svg id="Capa_1" enable-background="new 0 0 512 512" height="512" viewBox="0 0 512 512" width="512" xmlns="http://www.w3.org/2000/svg"><path id="XMLID_3645_" d="m115.822 454.983h-30v-61.694c0-25.879 21.631-46.934 48.219-46.934 8.006 0 14.519-6.001 14.519-13.377v-48.479h30v48.479c0 23.918-19.971 43.377-44.519 43.377-10.046 0-18.219 7.596-18.219 16.934z" fill="#e94f20"/><path id="XMLID_3643_" d="m426.178 451.354h-30v-58.065c0-9.337-8.173-16.934-18.219-16.934-24.548 0-44.519-19.459-44.519-43.377v-48.479h30v48.479c0 7.376 6.513 13.377 14.519 13.377 26.588 0 48.219 21.054 48.219 46.934z" fill="#ca2e17"/><path id="XMLID_3641_" d="m241 280.833h30v174.15h-30z" fill="#e94f20"/><path id="XMLID_3647_" d="m256 280.833h15v174.15h-15z" fill="#ca2e17"/><path id="XMLID_3639_" d="m366.865 16.128c-40.247 0-83.499 15.813-110.865 43.771-14.176-8.143-28.352-12.854-51.569-12.854-48.125 0-91.858 25.742-114.094 66.357-50.189 2.161-90.337 42.34-90.337 91.419 0 50.459 42.433 91.51 94.589 91.51h272.276c80.028 0 145.135-62.849 145.135-140.101s-65.107-140.102-145.135-140.102z" fill="#f2f3fb"/><ellipse id="XMLID_3637_" cx="100.822" cy="467.033" fill="#2eb3f2" rx="30" ry="28.84"/><ellipse id="XMLID_3635_" cx="411.178" cy="467.033" fill="#1b97fb" rx="30" ry="28.84"/><ellipse id="XMLID_3634_" cx="256" cy="467.033" fill="#2eb3f2" rx="30" ry="28.84"/><path id="XMLID_3650_" d="m286 467.033c0 15.928-13.432 28.84-30 28.84v-57.679c16.568-.001 30 12.911 30 28.839z" fill="#1b97fb"/><path id="XMLID_378_" d="m366.865 16.128c-40.247 0-83.499 15.813-110.865 43.771v236.433h110.865c80.028-.001 145.135-62.85 145.135-140.102s-65.107-140.102-145.135-140.102z" fill="#d9dafb"/><path id="XMLID_77_" d="m274.316 121.851c-7.815-2.743-16.377 1.369-19.121 9.186l-26.696 76.057c-2.744 7.816 1.369 16.377 9.186 19.121 1.644.577 3.319.851 4.968.851 6.191 0 11.987-3.863 14.153-10.036l26.696-76.057c2.743-7.818-1.369-16.379-9.186-19.122z" fill="#2eb3f2"/><path id="XMLID_9_" d="m207.209 130.371c-5.47-6.222-14.947-6.831-21.169-1.362l-43.562 38.295c-3.229 2.839-5.085 6.927-5.096 11.226s1.823 8.397 5.037 11.253l43.562 38.705c2.857 2.539 6.414 3.787 9.958 3.787 4.137 0 8.255-1.701 11.219-5.037 5.502-6.193 4.942-15.674-1.25-21.176l-30.874-27.432 30.815-27.089c6.22-5.471 6.83-14.948 1.36-21.17z" fill="#2eb3f2"/><g fill="#1b97fb"><path id="XMLID_8_" d="m369.522 167.304-43.562-38.295c-6.222-5.469-15.699-4.86-21.169 1.362s-4.86 15.7 1.362 21.169l30.815 27.089-30.874 27.432c-6.193 5.502-6.753 14.983-1.25 21.176 2.964 3.336 7.082 5.038 11.219 5.037 3.543 0 7.101-1.249 9.958-3.787l43.562-38.705c3.214-2.856 5.048-6.954 5.037-11.253s-1.869-8.386-5.098-11.225z"/><path id="XMLID_126_" d="m274.316 121.851c-7.172-2.517-14.96.748-18.316 7.343v89.692c.303-.594.578-1.209.805-1.856l26.696-76.057c2.744-7.818-1.368-16.379-9.185-19.122z"/></g></svg>